<?xml version="1.0" encoding="utf-8"?>
<!-- Generator: Adobe Illustrator 18.0.0, SVG Export Plug-In . SVG Version: 6.00 Build 0)  -->
<!DOCTYPE svg PUBLIC "-//W3C//DTD SVG 1.1//EN" "http://www.w3.org/Graphics/SVG/1.1/DTD/svg11.dtd">
<svg version="1.1" id="Layer_1" xmlns="http://www.w3.org/2000/svg" xmlns:xlink="http://www.w3.org/1999/xlink" x="0px" y="0px"
	 width="800px" height="600px" viewBox="0 0 800 600" enable-background="new 0 0 800 600" xml:space="preserve">
<g>
	<rect fill="#64CADE" width="800" height="600"/>
	<g>
		<ellipse fill="#57B1C3" cx="398.5" cy="529.2" rx="219.7" ry="4.7"/>
		<g>
			<g>
				<g>
					<path fill="#FABDBA" d="M407.8,425.9h16.5c1.6-31.3,31.3-49.4,31.3-49.4c24.7,6.6,36.2-3.9,36.2-3.9
						c44.4,20.8,68.1-12.9,68.1-12.9c38.4-0.3,47.1-43.1,47.1-43.1c41.1-20.4,16.6-71.8,16.6-71.8c19.9-37.8-24.5-68.8-24.5-68.8
						c-1.3-40.8-41.4-42.6-41.4-42.6C533,82.9,484,99.8,484,99.8c-42.2-43.1-86.3-9-86.3-9c-51.3-19.2-68.3,11.2-68.3,11.2
						c-53.8-11.3-67.3,27.6-67.3,27.6c-52-8.4-71.4,59.3-71.4,59.3s-38.6,15-18.3,52.7c0,0-9.6,40.4,33.2,47.4
						c0,0,19.4,30.9,62.4,25.5c0,0,25.4,26.5,58.8,18c0,0,18.1,33.3,54.6,32.9C381.1,365.3,407.8,389.7,407.8,425.9z"/>
					<path fill="#F3736F" d="M632,273c-0.9-13.7-5.6-25.2-6.9-28.1c8-15.8,6.2-32.9-5.2-49.5c-7.6-11-17-18.3-19.5-20.1
						c-1.6-37.6-35.8-42.7-41.9-43.3c-15-30.1-38.5-36.5-55.7-36.5c-9.1,0-16.1,1.8-18.5,2.5c-14.3-14.3-30.3-21.6-47.6-21.6
						c-20.5,0-36,10.2-39.4,12.6c-11.1-4.1-21.6-6.2-31-6.2c-24.4,0-35.3,13.6-37.8,17.3c-6.2-1.2-12.2-1.9-17.8-1.9
						c-34.6,0-47.2,23.9-49.7,29.5c-2.6-0.4-5.3-0.6-7.8-0.6c-19.1,0-36.3,10.6-49.6,30.7c-8.9,13.4-13.3,26.6-14.3,29.7
						c-3.3,1.4-17.4,8.3-22.6,22.4c-3.5,9.5-2.2,20.1,3.9,31.6c-0.7,3.2-3.2,19,5.5,32c5.8,8.7,15.4,14.3,28.4,16.5
						c2.7,3.9,19.9,26.3,53.3,26.3c3.1,0,6.2-0.2,9.3-0.6c3.3,3.3,21.2,19.6,45.9,19.6c4.3,0,8.5-0.5,12.7-1.5
						c3.4,5.6,21.8,32.7,54.7,32.7c3.3,3.3,25.7,26.4,25.7,59c0,0.8,0.7,1.5,1.5,1.5h16.5c0.8,0,1.5-0.6,1.5-1.4
						c1.5-27.8,26.1-45.2,30-47.8c5.3,1.4,10.4,2,15.2,2c11.9,0,18.7-4.2,20.9-5.8c9.5,4.3,18.8,6.5,27.7,6.5
						c24.4,0,38.3-16.2,40.9-19.6c35.8-0.8,46.3-37.9,47.6-43.5C625.1,309,633.3,293.6,632,273z M555.2,132
						c-15,1.2-22.4,16.6-24.7,22.4c-9.6,0.3-16.9,4.7-19.3,6.4c-8.9-5.1-19.2-2.2-23.6-0.5c-0.3-6.4-2.3-23.8-15.9-27.2
						c-1.5-0.4-3-0.6-4.5-0.6c-0.3-6,0.3-24.1,17.3-31.4c0.6-0.2,8.1-2.6,18.3-2.6C518.9,98.6,540.9,104.4,555.2,132z M519.5,377.8
						c-8.7,0-17.9-2.2-27.3-6.6c-0.5-0.3-1.2-0.2-1.6,0.2c-0.1,0.1-6.5,5.7-19.7,5.7c-4.7,0-9.8-0.7-15-2.1c-0.4-0.1-0.8,0-1.2,0.2
						c-1.2,0.7-29.4,18.3-31.9,49.1h-13.6c-0.6-29.2-18.2-50.7-24.7-57.7c17-1.8,32.7-17,36.6-21.1c3.3,2.2,13.7,8.3,25.6,8.3
						c7.1,0,14.7-2.1,21.8-8.5c4.5,1.3,25,6.4,32-10.6l-2.8-1.1c-6.7,16.4-28.2,9-29.1,8.6c-0.5-0.2-1.1-0.1-1.5,0.3
						c-19.7,18.6-44.2,0.7-45.2-0.1c-0.6-0.5-1.5-0.4-2,0.2c-0.2,0.2-19.4,21.2-38.4,21.2c-0.1,0-0.2,0-0.3,0v0c0,0,0,0,0,0l-0.6,0
						c-33.6,0-51.3-29.8-52.6-32c-3.3-11.2-3-20.2,1-26.6c4.5-7.4,12.3-8.9,12.3-8.9l-0.3-1.5l-0.3-1.5c-0.4,0.1-9.1,1.8-14.3,10.3
						c-4.3,7-4.8,16.3-1.7,27.7c-3.8,0.9-7.7,1.3-11.6,1.3c-20.5,0-36.4-12.1-42.1-17.1c22.8-4,30.7-26.6,32.4-32.6
						c4.2,0.9,16.2,2.6,26.4-3.2c6-3.5,10.3-9.1,12.8-16.6c6.1,5.5,26.6,20.3,55.5,3.5c2.6,3,11.2,11.5,23.6,13
						c8.7,1,17.4-1.7,26-8.1c0.7,1.2,1.4,2.3,2.3,3.5c11.4,14.7,29.2,5.7,35.5,1.8c0.6,5.5,3.6,17.4,18.7,19.6
						c1.3,0.2,2.6,0.3,3.8,0.3c16.7,0,21.4-17.7,21.5-17.8l-2.9-0.7c-0.2,0.7-4.8,17.9-21.9,15.3c-17-2.5-16.3-18.6-16.3-19.3
						c0-0.6-0.3-1.1-0.8-1.4c-0.5-0.3-1.1-0.2-1.6,0.1c-0.9,0.7-21.5,15.9-33.6,0.3c-12.3-15.9-0.5-33.1,0-33.9l-2.5-1.7
						c-0.1,0.2-10.7,15.5-3.7,31.2c-8,6.2-16.2,8.8-24.2,7.9c-10.9-1.3-18.8-8.8-21.5-11.7c13.7-11,9.1-31.2,7.7-36.3
						c4-2.6,17.9-13.1,14-29c-3.9-15.6-21.4-16.3-27.2-16.1c0.3-4,0.1-13.7-6.2-20.6c-4.8-5.3-12.2-7.8-21.9-7.2l0.2,3
						c8.7-0.5,15.3,1.6,19.5,6.2c7,7.7,5.3,19.9,5.3,20c-0.1,0.5,0.1,0.9,0.4,1.3c0.3,0.3,0.8,0.5,1.3,0.4
						c0.9-0.1,21.8-2.4,25.8,13.7c4.1,16.2-12.8,25.9-13.5,26.3c-0.6,0.4-0.9,1.1-0.7,1.8c0.1,0.2,7.7,24.3-7.6,35
						c-32.9,19.9-53.7-3.1-54.6-4.1c-0.4-0.4-0.9-0.6-1.5-0.5c-0.5,0.1-1,0.5-1.1,1.1c-2.1,7.9-6.1,13.7-12.1,17.2
						c-11.2,6.5-25.4,2.7-25.6,2.6c-0.4-0.1-0.8-0.1-1.2,0.2c-0.4,0.2-0.6,0.6-0.7,1c-0.1,0.3-6.7,29.7-33.4,32.2l0,0c0,0,0,0,0,0
						c-3.3,0.4-6.5,0.6-9.7,0.6c-34.7,0-51-25.2-51.2-25.4c-0.2-0.4-0.6-0.6-1-0.7c-12.5-2-21.6-7.2-27-15.3
						c-8.5-12.8-5.3-28.9-5-30.2c0.9-2.3,13.2-33.3,41.6-23.1c0.5,0.2,1.1,0.1,1.5-0.3s0.6-0.9,0.5-1.4c0-0.2-2.9-20.9,14.5-29.1
						c17.5-8.2,34.8,6.2,35,6.4c0.1,0.1,0.1,0.1,0.2,0.1l0,0c9.7,5.8,12.2,19.6,8.3,28.3c-0.2,0.6-0.1,1.2,0.3,1.6
						c0.4,0.4,1.1,0.6,1.6,0.4c0.1,0,12.8-4.7,21.6,0.3c4.3,2.5,7.1,7,8.2,13.4l3-0.5c-1.3-7.3-4.5-12.5-9.7-15.5
						c-7.3-4.2-16.5-2.6-21.2-1.4c2.7-9.5-0.2-22.1-9.6-28.5c1.3-3.9,7.1-18.1,22.1-19.8c17.4-2,25.5,14.9,25.9,15.6l2.7-1.3
						c-0.1-0.2-9.5-19.6-29-17.3c-15.7,1.8-22.3,15.6-24.3,20.9c-5.1-3.7-20.4-13-36.5-5.5c-15.7,7.4-16.6,23.8-16.4,29.9
						c-24.8-7.4-38,14.5-42,22.7c-4.7-9.8-5.6-18.8-2.6-26.8c5.3-14.4,21.4-20.9,21.6-20.9c0.4-0.2,0.8-0.5,0.9-1
						c0.2-0.6,17.4-59,61.2-59c2.2,0,4.5,0.2,6.9,0.5c-2,8.4-1.2,16.7,2.4,23.1c2.9,5.2,7.3,8.7,12.7,10.2l0.8-2.9
						c-4.6-1.3-8.4-4.3-10.9-8.7c-3.4-6.1-4-14.3-1.7-22.4c0.5-1.5,10.8-28.6,47.4-28.6c5.7,0,11.8,0.7,18.2,2
						c15.1,4.3,24.1,17.1,21.9,31l3,0.5c2.3-14.9-6.8-28.5-22.2-33.7c3.2-4.2,13.5-15.2,34.7-15.2c9.3,0,19.6,2.1,30.7,6.3
						c0.5,0.2,1,0.1,1.4-0.2c0.2-0.1,16.4-12.5,38.2-12.5c16.1,0,31.1,6.7,44.6,19.9c-16.4,8.4-17.3,26.9-17.1,33.3
						c-13.2,1-24.6,11.9-25.2,12.4l2.1,2.2c0.2-0.1,15.5-14.7,29.8-11.1c14,3.5,13.7,26.3,13.7,26.5c0,0.5,0.3,1,0.7,1.3
						c0.4,0.3,1,0.3,1.5,0.1c0.2-0.1,16.1-8.2,26.8,2.5c10.5,10.5-0.1,28.1-0.2,28.3l2.6,1.6c0.5-0.8,12-19.8-0.2-32
						c-0.6-0.6-1.2-1.1-1.8-1.6c3.1-1.9,10-5.4,18.5-5.2l0.1,0c0,0,0,0,0,0c2.2,0.1,4.5,0.4,6.9,1.1c14.5,4.1,12.7,21.3,12.6,22
						c-0.1,0.5,0.2,1,0.6,1.4s1,0.4,1.5,0.2c0.1,0,11.7-4.5,19.7,4.5c7.9,8.9-0.1,23.3-0.2,23.5l2.6,1.5c0.4-0.7,9.2-16.4-0.2-26.9
						c-7.1-8-16.7-6.9-20.9-6c0-5.4-1.3-19.3-14.9-23.1c-2.3-0.6-4.5-1-6.6-1.1c2.6-6.1,9.8-19.6,23.4-19.6c0.1,0,0.3,0,0.4,0
						c1.7,0.1,38.7,2.3,39.9,41.2c0,0.5,0.3,0.9,0.6,1.2c0.4,0.3,43,30.7,24,66.9c0,0,0,0.1,0,0.1l0,0c-7.6,18.5-26.8,18-37.3,14.6
						c-3.2-4.3-8.1-7.1-14.7-8.3c-3.3-16.6-22.9-18.2-23.2-18.2l-0.2,3c0.9,0.1,21.8,1.8,20.8,21.5c-1,20.1-15.4,25.8-16,26
						c-0.5,0.2-0.8,0.6-0.9,1.1c-0.1,0.5,0.1,1,0.5,1.4c0.2,0.1,15.9,14.8,5.4,30.4c-10.6,15.7-30.4,9.1-31.3,8.8l-1,2.8
						c0.1,0,5,1.7,11.5,1.7c6.5,0,14.5-1.7,20.6-8.3c3.4,2,5.8,5.3,7.1,9.5c2.5,8,0.6,18.7-4.9,28.6
						C557.5,360.2,544,377.8,519.5,377.8z M562.2,358.1c5-10,6.5-20.6,3.9-28.7c-1.5-4.8-4.2-8.5-8.1-10.9c0.2-0.3,0.5-0.6,0.7-1
						c9.8-14.6-0.3-28.2-4.3-32.7c4.5-2.4,15.1-10,16-27.7c0.1-1.1,0-2.2,0-3.3c5.9,1.3,10.2,4.1,12.8,8.2
						c5.1,8.5,1.4,20.2,1.4,20.3c-0.1,0.4-0.1,0.8,0.1,1.2c0.2,0.4,0.5,0.6,0.9,0.7c17.9,5.6,20.9,16.5,19.8,32.3
						C604.9,318.5,596.1,356,562.2,358.1z M608.5,314.1c0.6-15-3.1-26.3-20.6-32.3c0.8-3.3,2.4-11.7-0.9-19.1
						c2.9,0.7,6.2,1.1,9.6,1.1c9.7,0,20.6-3.5,26.8-15.2C627.6,259.4,639.2,296.8,608.5,314.1z"/>
				</g>
				<g>
					<g>
						<path fill="#FFFFFF" d="M239,511.2c0,0-2.3,4.9-4.9,7.1c-2.7,2.1,11.2,11.9,14.5,10.8c3.3-1.1-7.6-7.7-7.8-9.8
							c-0.2-2.1,1.5-5.8,1.5-5.8L239,511.2z"/>
						<path fill="#FFFFFF" d="M292.9,513.9c0,0,0.3,5.4-1.1,8.6c-1.4,3.1,15.5,5.3,17.8,2.9c2.4-2.4-10.3-3.3-11.5-5.1
							s-1.3-5.8-1.3-5.8L292.9,513.9z"/>
						<path fill="#183145" d="M254.8,402.1c0,0-5,9.1-5,21.4c0,12.3,3,30.8,2,39.4c-1.1,8.6-16,51.9-16,51.9l7,2.4
							c0,0,21.3-28.1,29-51.4c7.7-23.3,10.8-62,10.8-62L254.8,402.1z"/>
						<path fill="#183145" d="M294.2,403.8c0,0,8,27.6,9,52.6s-4.5,60.8-4.5,60.8h-7.8c0,0-5.2-46.2-8.2-57.6
							c-3-11.3-22.5-34.2-20.5-57.6L294.2,403.8z"/>
					</g>
					<g>
						<path fill="#D1D3D4" d="M254.3,362c0,0-12-32.5-4.1-54.7c7-19.9,20.1-30,20.1-30l3.4,2.7c0,0-12.6,24.9-13.2,35.1
							c-0.6,10.2,4.7,28.1,4.7,28.1L254.3,362z"/>
						<path fill="#FBBCA1" d="M266,318.5c3.8-5.3,11.4-7,16.4,0.6c5,7.6,3.8,19.7,0,20.7c-5.7,1.7-4.6,10.3-4.6,10.3h-7.6
							c0,0,0.2-11.8-4.5-16.9C261.4,328.5,263.4,322.1,266,318.5z"/>
						<path fill="#68C293" d="M253.5,356.7c-0.9-7.4,5-13.8,12.4-13.6c1.1,0,2.2,0.1,3.4,0.1c10.5,0.3,30.5-7.4,30.5-7.4
							s2.3,10,0,31.4c-2.3,21.3-5.6,36.5-5.6,36.5l-39.3-1.7c0,0,1.4-30.5-0.1-37.8C254.3,362.2,253.9,359.5,253.5,356.7z"/>
						<path fill="#FFFFFF" d="M288.5,339.9c0,0,14.7-21.3,16.3-31.4s1.4-33.4,1.4-33.4l4.3-1.4c0,0,9,28.4,6.4,42.9
							c-2.5,13.8-27.5,47.3-27.5,47.3L288.5,339.9z"/>
						<path fill="#FBBCA1" d="M270.2,277.3c0,0-0.7-6.5,1.1-7.8s7.1-2.5,7.6-1.6s-3.3,3.5-3.4,5.9s4,0.7,4.1,2.3s-6.1,3.9-6.1,3.9
							L270.2,277.3z"/>
						<path fill="#FBBCA1" d="M306.3,275.1c0,0-3.5-2.4-4.3-5.1s0.5-9.4,2.2-9.4s2.6,5.6,3.7,6.8c1.1,1.2,2.7,3.4,2.7,6.2
							L306.3,275.1z"/>
						<path fill="#183145" d="M280.4,314c3.9,2.9,6.8,10.8-0.7,17.4c0,0,1.4,8.5-6.1,10.1c-7.5,1.6-5.3-3.3-9.9-9.4
							s-4.3-14.8,3.3-18.7s15.4-4.8,16.8-2.1S280.4,314,280.4,314z"/>
					</g>
					<path fill="#FFFFFF" d="M298.2,334.1c0,0-10.1,8.4-34.6,8.9c-6.6,0.1-12.1,5-12.9,11.5c-2.7,20.1-8.4,61.4-11.8,86.1
						c0,0,9.7,2.2,24.6,3.2l2.7-11.3l2.6,11.6c11.4,0.5,25.2,0.3,39.8-1.9C308.6,442.1,307.2,370.2,298.2,334.1z"/>
				</g>
				<g>
					<path fill="#183145" d="M565.3,324.9c2.3,6.5,11.5,19.3,8.6,25s-29.3,8.2-34.5,3.2s3.8-18.5,2.4-33.1H562L565.3,324.9z"/>
					<g>
						<path fill="#FFFFFF" d="M538.6,513.9c0,0-0.3,5.4,1.1,8.6c1.4,3.1-15.5,5.3-17.8,2.9c-2.4-2.4,10.3-3.3,11.5-5.1
							c1.2-1.8,1.3-5.8,1.3-5.8L538.6,513.9z"/>
						<path fill="#183145" d="M537.3,403.8c0,0-8,27.6-9,52.6s4.5,60.8,4.5,60.8h7.8c0,0,5.2-46.2,8.2-57.6
							c3-11.3,22.5-34.2,20.5-57.6L537.3,403.8z"/>
						<path fill="#FFFFFF" d="M572.2,513.9c0,0,0.5,5.4,2.3,8.6c1.8,3.1-14.7,5.3-17.4,2.9c-2.7-2.4,9.8-3.3,10.7-5.1
							c0.9-1.8,0.5-5.8,0.5-5.8L572.2,513.9z"/>
						<path fill="#183145" d="M545.4,403.8c0,0-1.7,27.6,3.1,52.6s18.4,60.8,18.4,60.8h7.8c0,0-5.4-46.2-5-57.6
							c0.4-11.3,14.7-34.2,7.3-57.6L545.4,403.8z"/>
					</g>
					<g>
						<path fill="#D1D3D4" d="M542.2,341.9c-5,0.8-11.3,20-19,33.8l7,4c0,0,10.7-6.9,15.7-20C550.9,346.7,542.2,341.9,542.2,341.9z"
							/>
						<path fill="#D1D3D4" d="M533,348.9c0,0-5,10.9-8.4,19.5c-3.4,8.6-0.2,13.6,5.6,11.3c5.8-2.3,6.5-29.2,6.5-29.2L533,348.9z"/>
						<path fill="#FBBCA1" d="M533,348.9c0,0-0.7-4.4-0.3-7c0.4-2.6,4.7-6.5,5.6-5.9s-1.1,5.1-0.6,7.4c0.4,2.3-1,7.1-1,7.1
							L533,348.9z"/>
					</g>
					<path fill="#68C293" d="M576.7,402.1c0,0,1-17.4,1.5-35.2s-1.3-27.6-1.3-27.6c-6-0.1-34.7,2.6-34.7,2.6s-5.3,18.3-8.8,25.3
						s6.8,8.3,6.8,8.3l-2.8,28.4c0,0,3.1,2.4,14.9,1.9S576.7,402.1,576.7,402.1z"/>
					<path fill="#FFFFFF" d="M536.1,375.5l-9.7,54.2h5c8.8-24,19.1-88.4,19.1-88.4l-8.4,0.6c0,0-7.1,21.3-9.1,25.9
						C531.2,372.4,536.1,375.5,536.1,375.5z"/>
					<path fill="#FFFFFF" d="M564.6,340c0,0-2,12.3-1.6,32.5s3,57.1,3,57.1h25.4l-14.5-90.3L564.6,340z"/>
					<path fill="#183145" d="M531.6,359.5l5,28.5c0.2,1.3,1.4,2.3,2.8,2.3h18.3c1.8,0,3.1-1.6,2.8-3.3l-5-28.5
						c-0.2-1.3-1.4-2.3-2.8-2.3h-18.3C532.7,356.1,531.3,357.7,531.6,359.5z"/>
					<path fill="#FBBCA1" d="M552.2,375.7c0,0-3.9-1-4.9-2.8s-3.2-4.6-3.9-4.4c-0.7,0.2,0,3.1,0,3.1s-7.5-3-6.9-0.5
						c0.6,2.5,1.6,7.1,15,6.8L552.2,375.7z"/>
					<path fill="#D1D3D4" d="M563.1,377c0.1,2.9,0.2,6,0.3,9.1c7.7,2,16.1,3.4,21.2,1.6l-7.5-46.6c-3.2,2.1-4.2,5.9-4.2,11.1
						c0.1,7.5,6.2,24.8,6.2,24.8C577.7,377.5,570.4,377.3,563.1,377z"/>
					<path fill="#FFFFFF" d="M576.9,339.3c5.2-0.8,11,38.1,3.5,44.3s-32.4-6-32.4-6l0.8-3.8c0,0,23.1,1.5,25.6,0.8
						c0,0-4.9-16.3-4.9-23.3S571.2,340.2,576.9,339.3z"/>
					<g>
						<path fill="#FBBCA1" d="M551.7,308.3c-8.9,2.2-11,6.4-8.5,15.5s7.5,13.3,13.1,10.3C561.9,331.1,567.9,304.3,551.7,308.3z"/>
						<path fill="#FBBCA1" d="M552.2,331c0,0,0.8,7.9,0.7,10.9l-0.7,12.5l9.8-14.2l-1.8-18.7L552.2,331z"/>
					</g>
					<path fill="#183145" d="M543.8,307.9c-2.7,2-4.7,8.9-3.1,12.2c1.6,3.4,15.7-1.8,15.7-1.8s0.2,10.6,5.6,10.6c5.4,0,4-3.1,4-3.1
						s-2.7-5.1-3.8-11.9S555.8,299.3,543.8,307.9z"/>
				</g>
				<g>
					<rect x="381.1" y="419.4" fill="#183145" width="67" height="15"/>
					<path fill="#D1D3D4" d="M350.3,441.9v87.3H479v-87.3c0-6.7-5.5-12.2-12.2-12.2H362.5C355.8,429.7,350.3,435.1,350.3,441.9z"/>
					<path fill="#BCBEC0" d="M466.8,429.7h-10.8c6.7,0,12.2,5.5,12.2,12.2v87.3H479v-87.3C479,435.1,473.5,429.7,466.8,429.7z"/>
					<rect x="367.2" y="429.7" fill="#F1F2F2" width="6.5" height="99.5"/>
					<g>
						<path fill="#FFFFFF" d="M381.1,454.2L381.1,454.2c0,4.1,3.4,7.5,7.5,7.5h52c4.1,0,7.5-3.4,7.5-7.5v0c0-4.1-3.4-7.5-7.5-7.5
							h-52C384.5,446.7,381.1,450.1,381.1,454.2z"/>
						<path fill="#E6E7E8" d="M386.5,454.2L386.5,454.2c0,1.3,1,2.3,2.3,2.3h52.7c1.3,0,2.3-1,2.3-2.3l0,0c0-1.3-1-2.3-2.3-2.3
							h-52.7C387.5,451.9,386.5,453,386.5,454.2z"/>
						<path fill="#ED1C24" d="M386.5,454.2L386.5,454.2c0,1.3,1,2.3,2.3,2.3h12.7c1.3,0,2.3-1,2.3-2.3l0,0c0-1.3-1-2.3-2.3-2.3
							h-12.7C387.5,451.9,386.5,453,386.5,454.2z"/>
						<g>
							<circle fill="#FFDE17" cx="456.3" cy="450.1" r="2.8"/>
							<circle fill="#183145" cx="456.3" cy="458.4" r="2.8"/>
						</g>
						<g>
							<circle fill="#FFFFFF" cx="466" cy="450.1" r="2.8"/>
							<circle fill="#ED1C24" cx="466" cy="458.4" r="2.8"/>
						</g>
						<g>
							<circle fill="#183145" cx="373.6" cy="450.1" r="2.8"/>
							<circle fill="#ED1C24" cx="373.6" cy="458.4" r="2.8"/>
						</g>
					</g>
				</g>
			</g>
			<g>
				<g>
					<path fill="#FFFFFF" d="M187,301.3c-35.2-10.7-31.4-50.6-31.4-51l3,0.3c-0.2,1.5-3.5,37.9,29.3,47.9L187,301.3z"/>
				</g>
				<g>
					<path fill="#FFFFFF" d="M274.3,95.9l-2-2.2c0.8-0.7,20.2-17.8,49.9-10.7l-0.7,2.9C293.3,79.2,274.5,95.8,274.3,95.9z"/>
				</g>
				<g>
					<g>
						<path fill="#FFFFFF" d="M552.1,103.5c-14.9-19.8-39.7-18.2-39.9-18.2l-0.2-3c1.1-0.1,26.6-1.7,42.5,19.4L552.1,103.5z"/>
					</g>
					<g>
						
							<rect x="556.5" y="110.8" transform="matrix(0.5935 0.8049 -0.8049 0.5935 318.3982 -405.731)" fill="#FFFFFF" width="8.7" height="3"/>
					</g>
				</g>
				<g>
					<path fill="#FFFFFF" d="M641.5,211c-2.9-23.6-18.5-30.5-18.7-30.6l1.2-2.8c0.7,0.3,17.4,7.7,20.5,33L641.5,211z"/>
				</g>
				<g>
					<path fill="#FFFFFF" d="M604.7,359.4l-1.9-2.3l1,1.1l-1-1.1c0.1-0.1,11-9.5,14.7-27.9l2.9,0.6
						C616.5,349.2,605.2,359,604.7,359.4z"/>
				</g>
				<g>
					<path fill="#FFFFFF" d="M357.8,379.4c-18.8-3.7-30-18.2-30.5-18.8l2.4-1.8c0.1,0.1,11,14.2,28.7,17.7L357.8,379.4z"/>
				</g>
				<g>
					<path fill="#FFFFFF" d="M169.9,186.2l-2.2-2c0.2-0.2,3.7-4,11.3-5.9c0.3-3.6,2-14.5,11.6-26.7l2.4,1.9
						c-10.8,13.7-11,26-11,26.1l0,1.2l-1.2,0.3C173.4,182.6,170,186.2,169.9,186.2z"/>
				</g>
				<g>
					<g>
						<path fill="#FFFFFF" d="M396.8,79.7l-0.9-0.4c-6.1-2.5-13.3-3.6-13.3-3.6l0.5-3c0.3,0,7,1.1,13.2,3.5c2.6-2,11.7-8.4,26.8-9.8
							l0.3,3c-16.6,1.6-25.7,9.6-25.8,9.7L396.8,79.7z"/>
					</g>
					<g>
						<path fill="#FFFFFF" d="M446.1,71c-9.8-2.8-15.9-1.7-15.9-1.6l-0.6-2.9c0.3-0.1,6.8-1.4,17.4,1.7L446.1,71z"/>
					</g>
				</g>
				<g>
					<path fill="#FFFFFF" d="M475.3,391.2c-4.6,0-7.5-0.8-7.7-0.8l0.8-2.9c0.1,0,9.1,2.4,20.8-1.7l1,2.8
						C484.4,390.6,479.2,391.2,475.3,391.2z"/>
				</g>
				<g>
					<path fill="#FFFFFF" d="M514.5,391.2c-9.2-0.2-13.8-2.6-14-2.7l1.4-2.7c0,0,4.2,2.1,12.7,2.3L514.5,391.2z"/>
				</g>
			</g>
			<g>
				<path fill="#FCDEDE" d="M274.8,134.8l-3-0.2c0-0.5,1.2-12.3,19.1-20.1c17.8-7.8,28.3-1.8,28.8-1.5l-1.5,2.6
					c-0.1-0.1-9.7-5.5-26,1.7C275.9,124.3,274.8,134.3,274.8,134.8z"/>
			</g>
			<g>
				<path fill="#FCDEDE" d="M207.1,188.5l-3-0.5c2.7-17.6,15.2-31.4,15.7-32l2.2,2C221.9,158.2,209.6,171.8,207.1,188.5z"/>
			</g>
			<g>
				<path fill="#FCDEDE" d="M194.3,275.1c-0.6-0.2-15.3-6-15.5-20.9c-0.2-14.7,10.1-21,10.6-21.3l1.5,2.6c-0.4,0.2-9.3,5.8-9.1,18.7
					c0.2,12.8,13,17.9,13.5,18.1L194.3,275.1z"/>
			</g>
			<g>
				<path fill="#FCDEDE" d="M531.3,120.8c-0.8-2-2.6-4-5.2-5.9l1.8-2.4c3.1,2.3,5.1,4.6,6.1,7.1L531.3,120.8z"/>
			</g>
			<g>
				<path fill="#FCDEDE" d="M519.7,111.3c-8.3-3.5-17.6-3.9-25-1.1l-1.1-2.8c8.1-3.1,18.3-2.7,27.3,1.1L519.7,111.3z"/>
			</g>
			<g>
				<path fill="#FCDEDE" d="M478.7,156l-3-0.2c0-0.3,0.5-7.5-5.3-11c-5.7-3.4-14.3,2.4-14.4,2.5l-1.7-2.5c0.4-0.3,10.2-7,17.6-2.6
					C479.3,146.7,478.7,155.7,478.7,156z"/>
			</g>
			<g>
				<path fill="#FCDEDE" d="M559,267.3l-2.7-1.2c0-0.1,3.6-8.1,0.7-15.1c-2.8-6.8-14.7-7.9-14.8-7.9l0.3-3c0.6,0,13.8,1.3,17.3,9.7
					C563.1,258,559.1,266.9,559,267.3z"/>
			</g>
		</g>
	</g>
</g>
</svg>
